#!OML:ASF E:\motion texture\Top Level 1\Subject 1\Session 1\male.ASF
:FULLY-SPECIFIED
:DEGREES
433
root -13.4138 18.1144 3.70919 372.157 -82.9913 -368.031
lowerback -2.57955 0.622009 -1.06096
upperback -4.83705 0.742758 0.104389
thorax -3.545 0.371063 0.699522
lowerneck -3.41467 -2.17325 -8.20924
upperneck -29.5116 -2.31432 10.8979
head -8.28491 -1.71421 5.39927
rclavicle 2.4376e-014 1.19271e-015
rhumerus 66.902 3.81431 -43.3659
rradius 87.5572
rwrist 18.0527
rhand -29.2161 -25.6531
rfingers 7.12502
rthumb -2.56037 -415.617
lclavicle 2.4376e-014 1.19271e-015
lhumerus 48.9623 -7.77993 58.4345
lradius 86.1675
lwrist -0.450724
lhand -20.5944 33.0016
lfingers 7.12502
lthumb 5.76596 62.9031
rfemur -29.9964 -7.18035 19.5827
rtibia 28.3713
rfoot -2.69169 -17.8096
rtoes 11.7339
lfemur 1.93986 -4.51658 -19.2971
ltibia 11.9962
lfoot -12.312 -4.18499
ltoes -1.33046
434
root -13.5537 18.1121 3.68782 372.078 -82.8206 -367.814
lowerback -2.57457 0.631419 -1.12365
upperback -4.94849 0.750038 0.0621897
thorax -3.66445 0.375631 0.690495
lowerneck -3.39987 -2.19163 -8.27219
upperneck -29.5036 -2.33775 10.9031
head -8.28109 -1.71688 5.41269
rclavicle 8.44835e-016 -7.35503e-015
rhumerus 67.846 3.28751 -43.5748
rradius 87.098
rwrist 18.2979
rhand -29.8906 -26.0358
rfingers 7.12502
rthumb -3.21181 -415.991
lclavicle 8.44835e-016 -7.35503e-015
lhumerus 51.0629 -6.74931 58.3474
lradius 85.5361
lwrist 0.16895
lhand -20.779 33.4998
lfingers 7.12502
lthumb 5.58773 63.4061
rfemur -29.8777 -6.9294 19.5194
rtibia 26.9393
rfoot -2.61902 -18.031
rtoes 11.8401
lfemur 2.21848 -4.56489 -19.1734
ltibia 12.0731
lfoot -12.4363 -4.25366
ltoes -1.80821
435
root -13.6952 18.1102 3.66586 372.045 -82.659 -367.648
lowerback -2.57047 0.643884 -1.17839
upperback -5.06 0.761182 0.0212834
thorax -3.78358 0.381894 0.678285
lowerneck -3.38926 -2.20951 -8.33213
upperneck -29.4862 -2.36055 10.9053
head -8.27337 -1.71908 5.42383
rclavicle 3.42904e-015 -3.18055e-015
rhumerus 68.7959 2.79116 -43.788
rradius 86.6102
rwrist 18.5609
rhand -30.5783 -26.4294
rfingers 7.12502
rthumb -3.87592 -416.374
lclavicle 3.42904e-015 -3.18055e-015
lhumerus 53.1023 -5.75919 58.3451
lradius 84.8583
lwrist 0.777003
lhand -20.9648 34.0186
lfingers 7.12502
lthumb 5.40833 63.9295
rfemur -29.741 -6.66131 19.4601
rtibia 25.5938
rfoot -2.53092 -18.2693
rtoes 11.9918
lfemur 2.48405 -4.61704 -19.0413
ltibia 12.1853
lfoot -12.5427 -4.319
ltoes -2.33308
436
root -13.8382 18.1088 3.64331 372.055 -82.507 -367.528
lowerback -2.56814 0.659595 -1.22509
upperback -5.17104 0.776498 -0.0183261
thorax -3.90134 0.389978 0.662846
lowerneck -3.38406 -2.22706 -8.39061
upperneck -29.4577 -2.38236 10.9069
head -8.26094 -1.72065 5.43369
rclavicle -3.03147e-015 6.75868e-015
rhumerus 69.7495 2.32711 -44.0046
rradius 86.0958
rwrist 18.8432
rhand -31.268 -26.8381
rfingers 7.12502
rthumb -4.54188 -416.769
lclavicle -3.03147e-015 6.75868e-015
lhumerus 55.0796 -4.81578 58.424
lradius 84.1415
lwrist 1.37131
lhand -21.1462 34.5472
lfingers 7.12502
lthumb 5.23322 64.4626
rfemur -29.5885 -6.37844 19.4065
rtibia 24.3396
rfoot -2.43053 -18.5183
rtoes 12.1861
lfemur 2.73542 -4.67401 -18.9015
ltibia 12.3347
lfoot -12.6281 -4.38187
ltoes -2.90393
437
root -13.9827 18.1079 3.6202 372.102 -82.3651 -367.451
lowerback -2.56802 0.67852 -1.26382
upperback -5.28136 0.79598 -0.0568718
thorax -4.0172 0.399853 0.643968
lowerneck -3.38305 -2.24353 -8.44635
upperneck -29.4186 -2.40233 10.907
head -8.2443 -1.72128 5.44172
rclavicle -2.61899e-014 -3.77691e-015
rhumerus 70.7047 1.89724 -44.2232
rradius 85.5568
rwrist 19.1442
rhand -31.9516 -27.2621
rfingers 7.12502
rthumb -5.20203 -417.178
lclavicle -2.61899e-014 -3.77691e-015
lhumerus 56.9929 -3.92395 58.5771
lradius 83.3955
lwrist 1.95502
lhand -21.3082 35.0921
lfingers 7.12502
lthumb 5.07675 65.0112
rfemur -29.4211 -6.0845 19.3605
rtibia 23.1801
rfoot -2.32416 -18.7694
rtoes 12.4248
lfemur 2.97101 -4.73537 -18.7542
ltibia 12.5245
lfoot -12.6896 -4.44389
ltoes -3.51999
438
root -14.1288 18.1076 3.59653 372.186 -82.2328 -367.416
lowerback -2.56987 0.700557 -1.29371
upperback -5.39046 0.819545 -0.094195
thorax -4.13076 0.411431 0.621326
lowerneck -3.38682 -2.25936 -8.49788
upperneck -29.3688 -2.42127 10.9042
head -8.22334 -1.72138 5.44723
rclavicle -2.55935e-014 -1.98785e-015
rhumerus 71.6593 1.50258 -44.4414
rradius 84.9946
rwrist 19.462
rhand -32.6285 -27.6906
rfingers 7.12502
rthumb -5.8556 -417.59
lclavicle -2.55935e-014 -1.98785e-015
lhumerus 58.8396 -3.08659 58.7986
lradius 82.629
lwrist 2.5347
lhand -21.4634 35.6425
lfingers 7.12502
lthumb 4.92689 65.5652
rfemur -29.2397 -5.78398 19.3246
rtibia 22.1163
rfoot -2.2144 -19.017
rtoes 12.6979
lfemur 3.18926 -4.80088 -18.5991
ltibia 12.7574
lfoot -12.7259 -4.50735
ltoes -4.18223
439
root -14.2764 18.108 3.57232 372.311 -82.1097 -367.429
lowerback -2.57436 0.725793 -1.3141
upperback -5.49713 0.847428 -0.129668
thorax -4.24034 0.424794 0.595195
lowerneck -3.39575 -2.27449 -8.54487
upperneck -29.3086 -2.43914 10.8984
head -8.19807 -1.72097 5.45007
rclavicle 1.23246e-014 1.78906e-015
rhumerus 72.6123 1.14278 -44.656
rradius 84.4099
rwrist 19.7949
rhand -33.2925 -28.1212
rfingers 7.12502
rthumb -6.49657 -418.002
lclavicle 1.23246e-014 1.78906e-015
lhumerus 60.619 -2.30747 59.0848
lradius 81.8519
lwrist 3.11242
lhand -21.6033 36.199
lfingers 7.12502
lthumb 4.79184 66.1249
rfemur -29.0437 -5.48067 19.3023
rtibia 21.148
rfoot -2.10109 -19.2584
rtoes 13.0009
lfemur 3.38878 -4.8703 -18.4348
ltibia 13.0362
lfoot -12.7322 -4.57514
ltoes -4.88576
